<svg width="305" height="216" viewBox="0 0 305 216" fill="none" xmlns="http://www.w3.org/2000/svg">
<rect width="305" height="216" fill="white"/>
<circle cx="152" cy="64" r="32" fill="#F8F9FA"/>
<path d="M169.299 69.7575C169.2 69.7575 169.101 69.7313 169.013 69.6805L168.102 69.1415C167.966 69.0655 168.033 69.0383 168.078 69.0229C168.259 68.9596 168.296 68.9448 168.489 68.8355C168.51 68.8242 168.536 68.8283 168.557 68.8407L169.257 69.2563C169.282 69.2704 169.318 69.2704 169.341 69.2563L172.07 67.6816C172.095 67.6671 172.111 67.6379 172.111 67.6077V64.4589C172.111 64.428 172.095 64.3994 172.069 64.3836L169.342 62.8103C169.316 62.7958 169.283 62.7958 169.258 62.8103L166.531 64.384C166.505 64.3994 166.488 64.429 166.488 64.4589V67.6077C166.488 67.6379 166.505 67.6664 166.531 67.6805L167.278 68.1126C167.684 68.3151 167.932 68.0765 167.932 67.8366V64.7274C167.932 64.6837 167.968 64.649 168.011 64.649H168.357C168.4 64.649 168.436 64.6837 168.436 64.7274V67.8366C168.436 68.3777 168.141 68.6881 167.628 68.6881C167.47 68.6881 167.346 68.6881 167 68.5176L166.285 68.1057C166.108 68.0033 165.999 67.8122 165.999 67.608V64.4592C165.999 64.2547 166.108 64.0639 166.285 63.9622L169.013 62.3854C169.185 62.2881 169.415 62.2881 169.586 62.3854L172.314 63.9622C172.491 64.0643 172.601 64.2551 172.601 64.4592V67.608C172.601 67.8125 172.491 68.0026 172.314 68.1057L169.586 69.6808C169.499 69.7313 169.401 69.7575 169.299 69.7575ZM170.142 67.5881C168.948 67.5881 168.698 67.0398 168.698 66.5802C168.698 66.5369 168.733 66.5015 168.777 66.5015H169.13C169.169 66.5015 169.202 66.5296 169.208 66.5681C169.261 66.9274 169.42 67.1085 170.142 67.1085C170.717 67.1085 170.962 66.9786 170.962 66.6733C170.962 66.4973 170.892 66.3671 169.999 66.2794C169.252 66.2055 168.791 66.0408 168.791 65.4431C168.791 64.8927 169.255 64.5641 170.032 64.5641C170.907 64.5641 171.339 64.8676 171.394 65.5187C171.396 65.5407 171.388 65.5623 171.373 65.5792C171.358 65.5947 171.337 65.6043 171.315 65.6043H170.961C170.924 65.6043 170.892 65.5785 170.884 65.5427C170.799 65.1646 170.593 65.044 170.032 65.044C169.405 65.044 169.332 65.2629 169.332 65.4262C169.332 65.6246 169.418 65.6823 170.265 65.7944C171.104 65.9054 171.502 66.0621 171.502 66.6517C171.502 67.2474 171.007 67.5881 170.142 67.5881Z" fill="#83CD29"/>
<path d="M163.681 65.5228C163.789 65.4599 163.855 65.3451 163.855 65.2203V64.4111C163.855 64.2867 163.789 64.1719 163.681 64.109L160.806 62.4397C160.698 62.3768 160.564 62.3765 160.456 62.439L157.563 64.1093C157.455 64.1719 157.388 64.287 157.388 64.4118V67.7517C157.388 67.8772 157.456 67.9933 157.565 68.0556L160.44 69.6935C160.546 69.7544 160.675 69.7547 160.782 69.6956L162.521 68.729C162.576 68.698 162.611 68.6403 162.611 68.5777C162.611 68.5145 162.578 68.456 162.523 68.4247L159.612 66.7541C159.558 66.7228 159.524 66.6651 159.524 66.6029V65.5558C159.524 65.4932 159.558 65.4358 159.612 65.4049L160.518 64.8824C160.572 64.8511 160.638 64.8511 160.692 64.8824L161.599 65.4049C161.653 65.4362 161.686 65.4936 161.686 65.5558V66.3794C161.686 66.4423 161.72 66.5001 161.774 66.531C161.828 66.5623 161.895 66.5623 161.949 66.5307L163.681 65.5228Z" fill="#404137"/>
<path d="M160.588 65.3661C160.609 65.3544 160.635 65.3544 160.655 65.3661L161.21 65.6868C161.231 65.6988 161.244 65.7212 161.244 65.7449V66.386C161.244 66.41 161.231 66.432 161.21 66.4441L160.655 66.7644C160.635 66.7765 160.609 66.7765 160.588 66.7644L160.033 66.4441C160.012 66.432 160 66.41 160 66.386V65.7449C160 65.7212 160.012 65.6988 160.033 65.6868L160.588 65.3661Z" fill="#83CD29"/>
<path d="M153.06 66.6998C153.06 66.7307 153.043 66.7596 153.016 66.7754L152.023 67.3481C151.995 67.3639 151.962 67.3639 151.935 67.3481L150.942 66.7754C150.915 66.7596 150.898 66.7307 150.898 66.6998V65.5524C150.898 65.5214 150.915 65.4922 150.942 65.4764L151.935 64.903C151.962 64.8869 151.996 64.8869 152.023 64.903L153.017 65.4764C153.044 65.4922 153.06 65.5214 153.06 65.5524V66.6998H153.06ZM153.328 58.2037C153.274 58.1738 153.208 58.1745 153.155 58.2058C153.101 58.2374 153.068 58.2944 153.068 58.3563V62.7958C153.068 62.8392 153.045 62.8797 153.007 62.9017C152.97 62.9234 152.923 62.9234 152.885 62.9017L152.16 62.4841C152.053 62.4218 151.92 62.4218 151.812 62.4841L148.918 64.154C148.81 64.2166 148.743 64.3321 148.743 64.4568V67.7977C148.743 67.9225 148.81 68.0377 148.918 68.1006L151.811 69.7716C151.919 69.8341 152.053 69.8341 152.161 69.7716L155.055 68.1006C155.163 68.0377 155.23 67.9225 155.23 67.7977V59.4697C155.23 59.3432 155.161 59.2263 155.051 59.1645L153.328 58.2037Z" fill="#404137"/>
<path d="M143.144 62.4212C143.252 62.3586 143.386 62.3586 143.494 62.4212L146.387 64.0908C146.495 64.1533 146.562 64.2688 146.562 64.3936V67.7355C146.562 67.8603 146.495 67.9758 146.387 68.0384L143.494 69.7093C143.386 69.7716 143.253 69.7716 143.144 69.7093L140.252 68.0384C140.144 67.9758 140.077 67.8603 140.077 67.7355V64.3933C140.077 64.2688 140.144 64.1533 140.252 64.0908L143.144 62.4212Z" fill="#83CD29"/>
<path d="M137.882 64.3657C137.882 64.2399 137.816 64.1244 137.707 64.0622L134.815 62.3974C134.765 62.3686 134.711 62.3538 134.655 62.3517H134.625C134.57 62.3538 134.515 62.3686 134.466 62.3974L131.573 64.0622C131.465 64.1244 131.398 64.2399 131.398 64.3657L131.404 68.8482C131.404 68.9108 131.437 68.9689 131.491 68.9992C131.545 69.0315 131.611 69.0315 131.665 68.9992L133.384 68.0147C133.492 67.95 133.559 67.8362 133.559 67.7115V65.6173C133.559 65.4922 133.625 65.3771 133.733 65.3145L134.465 64.8931C134.52 64.8611 134.579 64.846 134.64 64.846C134.7 64.846 134.761 64.8611 134.814 64.8931L135.546 65.3145C135.654 65.3771 135.721 65.4922 135.721 65.6173V67.7115C135.721 67.8362 135.788 67.9507 135.896 68.0147L137.614 68.9992C137.668 69.0315 137.736 69.0315 137.789 68.9992C137.842 68.9686 137.876 68.9105 137.876 68.8482L137.882 64.3657Z" fill="#404137"/>
</svg>
